<?xml version="1.0" encoding="utf-8"?>
<!-- Generator: Adobe Illustrator 28.2.0, SVG Export Plug-In . SVG Version: 6.00 Build 0)  -->
<svg version="1.1" id="Layer_1" xmlns="http://www.w3.org/2000/svg" xmlns:xlink="http://www.w3.org/1999/xlink" x="0px" y="0px"
	 viewBox="0 0 42.4 15.2" style="enable-background:new 0 0 42.4 15.2;" xml:space="preserve">
<g>
	<path d="M2.6,2.7h1.7l2.7,6.4h0l2.7-6.4h1.7v8.5h-1.2v-7h0l-2.9,7H6.7l-2.9-7h0v7H2.6V2.7z"/>
	<path d="M13.3,6.2c0.3-0.3,0.7-0.5,1.1-0.6c0.4-0.1,0.8-0.2,1.2-0.2c0.4,0,0.8,0.1,1.1,0.2C17,5.6,17.2,5.8,17.4,6
		c0.2,0.2,0.3,0.4,0.4,0.6C17.9,6.8,18,7,18,7.3v2.9c0,0.2,0,0.4,0,0.6s0,0.3,0,0.5h-1c0-0.3,0-0.6,0-0.9h0
		c-0.2,0.4-0.5,0.6-0.9,0.8s-0.7,0.2-1.1,0.2c-0.3,0-0.5,0-0.8-0.1c-0.2-0.1-0.5-0.2-0.6-0.3c-0.2-0.1-0.3-0.3-0.4-0.5
		S13,9.9,13,9.7c0-0.4,0.1-0.7,0.2-0.9c0.2-0.2,0.4-0.5,0.7-0.6c0.3-0.2,0.6-0.3,1-0.3c0.4-0.1,0.8-0.1,1.2-0.1H17V7.4
		c0-0.1,0-0.3-0.1-0.4s-0.1-0.3-0.3-0.4c-0.1-0.1-0.3-0.2-0.4-0.3c-0.2-0.1-0.4-0.1-0.6-0.1c-0.2,0-0.4,0-0.5,0.1
		c-0.2,0-0.3,0.1-0.4,0.2c-0.1,0.1-0.2,0.1-0.3,0.2S14.1,6.8,14,6.9L13.3,6.2z M16.4,8.5c-0.3,0-0.5,0-0.8,0c-0.3,0-0.5,0.1-0.7,0.2
		c-0.2,0.1-0.4,0.2-0.5,0.3c-0.1,0.1-0.2,0.3-0.2,0.6c0,0.3,0.1,0.6,0.3,0.7c0.2,0.1,0.5,0.2,0.9,0.2c0.3,0,0.5,0,0.8-0.1
		c0.2-0.1,0.4-0.2,0.5-0.4c0.1-0.2,0.2-0.3,0.3-0.5C16.9,9.2,17,9,17,8.8V8.5H16.4z"/>
	<path d="M22.9,5.5H24v0.9h0c0.1-0.3,0.4-0.5,0.7-0.7s0.7-0.3,1.2-0.3c0.3,0,0.5,0,0.8,0.1s0.5,0.2,0.7,0.4s0.3,0.4,0.5,0.7
		c0.1,0.3,0.2,0.6,0.2,1v3.7h-1.1V7.9c0-0.3,0-0.5-0.1-0.7c-0.1-0.2-0.2-0.3-0.3-0.5c-0.1-0.1-0.3-0.2-0.4-0.3
		c-0.2-0.1-0.3-0.1-0.5-0.1c-0.2,0-0.4,0-0.6,0.1c-0.2,0.1-0.4,0.2-0.5,0.3c-0.1,0.2-0.3,0.4-0.3,0.6C24,7.7,24,8,24,8.3v2.9h-1.1
		V5.5z"/>
	<path d="M34.6,11.2h-1.1v-0.9h0c-0.1,0.3-0.4,0.6-0.7,0.7c-0.3,0.2-0.7,0.3-1.2,0.3c-0.3,0-0.5,0-0.8-0.1s-0.5-0.2-0.7-0.4
		c-0.2-0.2-0.3-0.4-0.5-0.7c-0.1-0.3-0.2-0.6-0.2-1V5.5h1.1v3.4c0,0.3,0,0.5,0.1,0.7c0.1,0.2,0.2,0.3,0.3,0.5
		c0.1,0.1,0.3,0.2,0.4,0.3c0.2,0.1,0.3,0.1,0.5,0.1c0.2,0,0.4,0,0.6-0.1c0.2-0.1,0.4-0.2,0.5-0.3c0.1-0.2,0.3-0.4,0.3-0.6
		c0.1-0.2,0.1-0.5,0.1-0.9V5.5h1.1V11.2z"/>
	<path d="M39.3,7c-0.1-0.2-0.3-0.3-0.5-0.4c-0.2-0.1-0.4-0.2-0.7-0.2c-0.3,0-0.5,0.1-0.7,0.2S37.1,6.8,37.1,7c0,0.2,0.1,0.3,0.2,0.4
		s0.2,0.2,0.4,0.3s0.3,0.1,0.5,0.1c0.2,0,0.3,0.1,0.4,0.1C38.8,8,39,8,39.2,8.1c0.2,0.1,0.4,0.2,0.5,0.3c0.1,0.1,0.3,0.3,0.3,0.5
		s0.1,0.4,0.1,0.7c0,0.3-0.1,0.6-0.2,0.8c-0.1,0.2-0.3,0.4-0.5,0.6s-0.5,0.2-0.7,0.3c-0.3,0.1-0.6,0.1-0.8,0.1
		c-0.5,0-0.9-0.1-1.2-0.2c-0.4-0.1-0.7-0.4-1-0.8l0.8-0.7c0.2,0.2,0.4,0.3,0.6,0.5c0.2,0.1,0.5,0.2,0.8,0.2c0.1,0,0.3,0,0.4,0
		c0.1,0,0.3-0.1,0.4-0.1S38.9,10,39,9.9c0.1-0.1,0.1-0.2,0.1-0.3c0-0.2-0.1-0.3-0.1-0.4C38.9,9.1,38.7,9,38.6,9
		c-0.1-0.1-0.3-0.1-0.4-0.1c-0.2,0-0.3-0.1-0.4-0.1c-0.2-0.1-0.5-0.1-0.7-0.2c-0.2-0.1-0.4-0.2-0.6-0.3S36.2,8,36.1,7.8
		C36,7.6,36,7.4,36,7.1c0-0.3,0.1-0.6,0.2-0.8c0.1-0.2,0.3-0.4,0.5-0.5s0.4-0.3,0.7-0.3c0.3-0.1,0.5-0.1,0.8-0.1
		c0.4,0,0.8,0.1,1.1,0.2c0.4,0.1,0.6,0.4,0.8,0.7L39.3,7z"/>
</g>
<g>
	<path d="M24,11.1c0,0.4-0.1,0.8-0.2,1.2s-0.4,0.7-0.6,0.9c-0.3,0.3-0.6,0.5-1,0.6S21.3,14,20.9,14c-0.5,0-1-0.1-1.5-0.2
		s-0.9-0.4-1.3-0.8l0.7-0.9c0.3,0.3,0.6,0.5,0.9,0.7c0.3,0.2,0.7,0.2,1.1,0.2c0.4,0,0.7-0.1,1-0.2c0.3-0.1,0.5-0.3,0.6-0.4
		c0.2-0.2,0.3-0.4,0.3-0.6c0.1-0.2,0.1-0.5,0.1-0.7v-0.8h0c-0.2,0.3-0.5,0.6-0.8,0.7c-0.4,0.2-0.7,0.2-1.1,0.2
		c-0.4,0-0.8-0.1-1.2-0.2c-0.4-0.1-0.7-0.3-0.9-0.6c-0.3-0.3-0.5-0.6-0.6-0.9S18,8.7,18,8.3c0-0.4,0.1-0.8,0.2-1.2s0.3-0.7,0.6-0.9
		s0.6-0.5,0.9-0.6c0.4-0.1,0.8-0.2,1.2-0.2c0.4,0,0.8,0.1,1.1,0.2c0.4,0.2,0.7,0.4,0.9,0.7h0V5.5H24V11.1z M21,6.4
		c-0.3,0-0.5,0-0.8,0.1c-0.2,0.1-0.4,0.2-0.6,0.4c-0.2,0.2-0.3,0.4-0.4,0.6c-0.1,0.2-0.1,0.5-0.1,0.8c0,0.6,0.2,1,0.5,1.4
		c0.3,0.3,0.8,0.5,1.4,0.5s1-0.2,1.4-0.5c0.3-0.3,0.5-0.8,0.5-1.4c0-0.3,0-0.5-0.1-0.8c-0.1-0.2-0.2-0.4-0.4-0.6
		c-0.2-0.2-0.4-0.3-0.6-0.4C21.6,6.4,21.3,6.4,21,6.4z"/>
</g>
</svg>
